{
    "asset" : {
        "generator" : "Khronos glTF Blender I/O v1.6.16",
        "version" : "2.0"
    },
    "scene" : 0,
    "scenes" : [
        {
            "name" : "Scene",
            "nodes" : [
                0
            ]
        }
    ],
    "nodes" : [
        {
            "mesh" : 0,
            "name" : "body_bus",
            "translation" : [
                0,
                2.2376010417938232,
                0
            ]
        }
    ],
    "materials" : [
        {
            "doubleSided" : true,
            "name" : "col_master_bus",
            "pbrMetallicRoughness" : {
                "baseColorFactor" : [
                    0.800000011920929,
                    0.800000011920929,
                    0.800000011920929,
                    1
                ],
                "metallicFactor" : 0,
                "roughnessFactor" : 0.5
            }
        },
        {
            "doubleSided" : true,
            "name" : "col_1",
            "pbrMetallicRoughness" : {
                "baseColorFactor" : [
                    0.019382359459996223,
                    0.022173885256052017,
                    0.01599629409611225,
                    1
                ],
                "metallicFactor" : 0,
                "roughnessFactor" : 0.5
            }
        },
        {
            "doubleSided" : true,
            "name" : "col_2",
            "pbrMetallicRoughness" : {
                "baseColorFactor" : [
                    0,
                    0,
                    0,
                    1
                ],
                "metallicFactor" : 0,
                "roughnessFactor" : 0.5
            }
        },
        {
            "doubleSided" : true,
            "name" : "col_3",
            "pbrMetallicRoughness" : {
                "baseColorFactor" : [
                    0.799102783203125,
                    0.005181516520678997,
                    0,
                    1
                ],
                "metallicFactor" : 0,
                "roughnessFactor" : 0.5
            }
        },
        {
            "doubleSided" : true,
            "name" : "col_4",
            "pbrMetallicRoughness" : {
                "baseColorFactor" : [
                    0.002063432242721319,
                    0.002063432242721319,
                    0.002063432242721319,
                    1
                ],
                "metallicFactor" : 0,
                "roughnessFactor" : 0.5
            }
        },
        {
            "doubleSided" : true,
            "name" : "col_5",
            "pbrMetallicRoughness" : {
                "baseColorFactor" : [
                    0.014669192023575306,
                    0.014669192023575306,
                    0.014669192023575306,
                    1
                ],
                "metallicFactor" : 0,
                "roughnessFactor" : 0.5
            }
        }
    ],
    "meshes" : [
        {
            "name" : "Cube",
            "primitives" : [
                {
                    "attributes" : {
                        "POSITION" : 0,
                        "NORMAL" : 1,
                        "TEXCOORD_0" : 2
                    },
                    "indices" : 3,
                    "material" : 0
                },
                {
                    "attributes" : {
                        "POSITION" : 4,
                        "NORMAL" : 5,
                        "TEXCOORD_0" : 6
                    },
                    "indices" : 7,
                    "material" : 1
                },
                {
                    "attributes" : {
                        "POSITION" : 8,
                        "NORMAL" : 9,
                        "TEXCOORD_0" : 10
                    },
                    "indices" : 11,
                    "material" : 2
                },
                {
                    "attributes" : {
                        "POSITION" : 12,
                        "NORMAL" : 13,
                        "TEXCOORD_0" : 14
                    },
                    "indices" : 15,
                    "material" : 3
                },
                {
                    "attributes" : {
                        "POSITION" : 16,
                        "NORMAL" : 17,
                        "TEXCOORD_0" : 18
                    },
                    "indices" : 19,
                    "material" : 4
                },
                {
                    "attributes" : {
                        "POSITION" : 20,
                        "NORMAL" : 21,
                        "TEXCOORD_0" : 22
                    },
                    "indices" : 23,
                    "material" : 5
                }
            ]
        }
    ],
    "accessors" : [
        {
            "bufferView" : 0,
            "componentType" : 5126,
            "count" : 4678,
            "max" : [
                1.7398449182510376,
                2.6470086574554443,
                8.476238250732422
            ],
            "min" : [
                -1.7398449182510376,
                -1.8943326473236084,
                -7.291630744934082
            ],
            "type" : "VEC3"
        },
        {
            "bufferView" : 1,
            "componentType" : 5126,
            "count" : 4678,
            "type" : "VEC3"
        },
        {
            "bufferView" : 2,
            "componentType" : 5126,
            "count" : 4678,
            "type" : "VEC2"
        },
        {
            "bufferView" : 3,
            "componentType" : 5123,
            "count" : 10056,
            "type" : "SCALAR"
        },
        {
            "bufferView" : 4,
            "componentType" : 5126,
            "count" : 78,
            "max" : [
                1.540712833404541,
                -0.5050011277198792,
                8.44517707824707
            ],
            "min" : [
                -1.540712833404541,
                -1.0048056840896606,
                7.683199405670166
            ],
            "type" : "VEC3"
        },
        {
            "bufferView" : 5,
            "componentType" : 5126,
            "count" : 78,
            "type" : "VEC3"
        },
        {
            "bufferView" : 6,
            "componentType" : 5126,
            "count" : 78,
            "type" : "VEC2"
        },
        {
            "bufferView" : 7,
            "componentType" : 5123,
            "count" : 168,
            "type" : "SCALAR"
        },
        {
            "bufferView" : 8,
            "componentType" : 5126,
            "count" : 1491,
            "max" : [
                1.8304262161254883,
                2.00974178314209,
                8.579900741577148
            ],
            "min" : [
                -1.8304262161254883,
                -1.7550623416900635,
                -7.291630744934082
            ],
            "type" : "VEC3"
        },
        {
            "bufferView" : 9,
            "componentType" : 5126,
            "count" : 1491,
            "type" : "VEC3"
        },
        {
            "bufferView" : 10,
            "componentType" : 5126,
            "count" : 1491,
            "type" : "VEC2"
        },
        {
            "bufferView" : 11,
            "componentType" : 5123,
            "count" : 3726,
            "type" : "SCALAR"
        },
        {
            "bufferView" : 12,
            "componentType" : 5126,
            "count" : 1587,
            "max" : [
                1.8304262161254883,
                2.00974178314209,
                8.644272804260254
            ],
            "min" : [
                -1.8304262161254883,
                -1.7550623416900635,
                -7.3075947761535645
            ],
            "type" : "VEC3"
        },
        {
            "bufferView" : 13,
            "componentType" : 5126,
            "count" : 1587,
            "type" : "VEC3"
        },
        {
            "bufferView" : 14,
            "componentType" : 5126,
            "count" : 1587,
            "type" : "VEC2"
        },
        {
            "bufferView" : 15,
            "componentType" : 5123,
            "count" : 4950,
            "type" : "SCALAR"
        },
        {
            "bufferView" : 16,
            "componentType" : 5126,
            "count" : 178,
            "max" : [
                1.5407127141952515,
                2.00974178314209,
                8.430726051330566
            ],
            "min" : [
                -1.5407127141952515,
                -1.3629567623138428,
                -7.291630744934082
            ],
            "type" : "VEC3"
        },
        {
            "bufferView" : 17,
            "componentType" : 5126,
            "count" : 178,
            "type" : "VEC3"
        },
        {
            "bufferView" : 18,
            "componentType" : 5126,
            "count" : 178,
            "type" : "VEC2"
        },
        {
            "bufferView" : 19,
            "componentType" : 5123,
            "count" : 444,
            "type" : "SCALAR"
        },
        {
            "bufferView" : 20,
            "componentType" : 5126,
            "count" : 1236,
            "max" : [
                1.5259933471679688,
                -0.7467238306999207,
                5.767703533172607
            ],
            "min" : [
                -1.5259933471679688,
                -2.227156162261963,
                -3.282336950302124
            ],
            "type" : "VEC3"
        },
        {
            "bufferView" : 21,
            "componentType" : 5126,
            "count" : 1236,
            "type" : "VEC3"
        },
        {
            "bufferView" : 22,
            "componentType" : 5126,
            "count" : 1236,
            "type" : "VEC2"
        },
        {
            "bufferView" : 23,
            "componentType" : 5123,
            "count" : 3492,
            "type" : "SCALAR"
        }
    ],
    "bufferViews" : [
        {
            "buffer" : 0,
            "byteLength" : 56136,
            "byteOffset" : 0
        },
        {
            "buffer" : 0,
            "byteLength" : 56136,
            "byteOffset" : 56136
        },
        {
            "buffer" : 0,
            "byteLength" : 37424,
            "byteOffset" : 112272
        },
        {
            "buffer" : 0,
            "byteLength" : 20112,
            "byteOffset" : 149696
        },
        {
            "buffer" : 0,
            "byteLength" : 936,
            "byteOffset" : 169808
        },
        {
            "buffer" : 0,
            "byteLength" : 936,
            "byteOffset" : 170744
        },
        {
            "buffer" : 0,
            "byteLength" : 624,
            "byteOffset" : 171680
        },
        {
            "buffer" : 0,
            "byteLength" : 336,
            "byteOffset" : 172304
        },
        {
            "buffer" : 0,
            "byteLength" : 17892,
            "byteOffset" : 172640
        },
        {
            "buffer" : 0,
            "byteLength" : 17892,
            "byteOffset" : 190532
        },
        {
            "buffer" : 0,
            "byteLength" : 11928,
            "byteOffset" : 208424
        },
        {
            "buffer" : 0,
            "byteLength" : 7452,
            "byteOffset" : 220352
        },
        {
            "buffer" : 0,
            "byteLength" : 19044,
            "byteOffset" : 227804
        },
        {
            "buffer" : 0,
            "byteLength" : 19044,
            "byteOffset" : 246848
        },
        {
            "buffer" : 0,
            "byteLength" : 12696,
            "byteOffset" : 265892
        },
        {
            "buffer" : 0,
            "byteLength" : 9900,
            "byteOffset" : 278588
        },
        {
            "buffer" : 0,
            "byteLength" : 2136,
            "byteOffset" : 288488
        },
        {
            "buffer" : 0,
            "byteLength" : 2136,
            "byteOffset" : 290624
        },
        {
            "buffer" : 0,
            "byteLength" : 1424,
            "byteOffset" : 292760
        },
        {
            "buffer" : 0,
            "byteLength" : 888,
            "byteOffset" : 294184
        },
        {
            "buffer" : 0,
            "byteLength" : 14832,
            "byteOffset" : 295072
        },
        {
            "buffer" : 0,
            "byteLength" : 14832,
            "byteOffset" : 309904
        },
        {
            "buffer" : 0,
            "byteLength" : 9888,
            "byteOffset" : 324736
        },
        {
            "buffer" : 0,
            "byteLength" : 6984,
            "byteOffset" : 334624
        }
    ],
    "buffers" : [
        {
            "byteLength" : 341608,
            "uri" : "data:application/octet-stream;base64,"
        }
    ]
}
