{
    "asset" : {
        "generator" : "Khronos glTF Blender I/O v1.3.48",
        "version" : "2.0"
    },
    "scene" : 0,
    "scenes" : [
        {
            "name" : "Scene",
            "nodes" : [
                0,
                1,
                2
            ]
        }
    ],
    "nodes" : [
        {
            "mesh" : 0,
            "name" : "Cube"
        },
        {
            "name" : "Camera",
            "rotation" : [
                0.483536034822464,
                0.33687159419059753,
                -0.20870360732078552,
                0.7804827094078064
            ],
            "translation" : [
                7.358891487121582,
                4.958309173583984,
                6.925790786743164
            ]
        },
        {
            "name" : "Point",
            "translation" : [
                0,
                5.965930461883545,
                6.857871055603027
            ]
        }
    ],
    "materials" : [
        {
            "doubleSided" : true,
            "emissiveFactor" : [
                0,
                0,
                0
            ],
            "name" : "Material",
            "pbrMetallicRoughness" : {
                "baseColorFactor" : [
                    1,
                    1,
                    1,
                    1
                ],
                "metallicFactor" : 0,
                "roughnessFactor" : 0
            }
        }
    ],
    "meshes" : [
        {
            "name" : "Cube",
            "primitives" : [
                {
                    "attributes" : {
                        "POSITION" : 0,
                        "NORMAL" : 1,
                        "TEXCOORD_0" : 2,
                        "COLOR_0" : 3
                    },
                    "indices" : 4,
                    "material" : 0
                }
            ]
        }
    ],
    "accessors" : [
        {
            "bufferView" : 0,
            "componentType" : 5126,
            "count" : 146,
            "max" : [
                2.523170232772827,
                25.691993713378906,
                0.03495042026042938
            ],
            "min" : [
                -2.9534528255462646,
                0.027067184448242188,
                -5.140627384185791
            ],
            "type" : "VEC3"
        },
        {
            "bufferView" : 1,
            "componentType" : 5126,
            "count" : 146,
            "type" : "VEC3"
        },
        {
            "bufferView" : 2,
            "componentType" : 5126,
            "count" : 146,
            "type" : "VEC2"
        },
        {
            "bufferView" : 3,
            "componentType" : 5126,
            "count" : 146,
            "type" : "VEC4"
        },
        {
            "bufferView" : 4,
            "componentType" : 5123,
            "count" : 228,
            "type" : "SCALAR"
        }
    ],
    "bufferViews" : [
        {
            "buffer" : 0,
            "byteLength" : 1752,
            "byteOffset" : 0
        },
        {
            "buffer" : 0,
            "byteLength" : 1752,
            "byteOffset" : 1752
        },
        {
            "buffer" : 0,
            "byteLength" : 1168,
            "byteOffset" : 3504
        },
        {
            "buffer" : 0,
            "byteLength" : 2336,
            "byteOffset" : 4672
        },
        {
            "buffer" : 0,
            "byteLength" : 456,
            "byteOffset" : 7008
        }
    ],
    "buffers" : [
        {
            "byteLength" : 7464,
            "uri" : "data:application/octet-stream;base64,"
        }
    ]
}
