{
    "asset" : {
        "generator" : "Khronos glTF Blender I/O v1.3.48",
        "version" : "2.0"
    },
    "scene" : 0,
    "scenes" : [
        {
            "name" : "Scene",
            "nodes" : [
                0,
                1,
                2
            ]
        }
    ],
    "nodes" : [
        {
            "name" : "Light",
            "rotation" : [
                0.16907575726509094,
                0.7558803558349609,
                -0.27217137813568115,
                0.570947527885437
            ],
            "translation" : [
                4.076245307922363,
                5.903861999511719,
                -1.0054539442062378
            ]
        },
        {
            "name" : "Camera",
            "rotation" : [
                0.483536034822464,
                0.33687159419059753,
                -0.20870360732078552,
                0.7804827094078064
            ],
            "translation" : [
                7.358891487121582,
                4.958309173583984,
                6.925790786743164
            ]
        },
        {
            "mesh" : 0,
            "name" : "Cube.001",
            "translation" : [
                7.570979595184326,
                0.8513599634170532,
                -1.078195571899414
            ]
        }
    ],
    "meshes" : [
        {
            "name" : "Cube.001",
            "primitives" : [
                {
                    "attributes" : {
                        "POSITION" : 0,
                        "NORMAL" : 1,
                        "TEXCOORD_0" : 2
                    },
                    "indices" : 3
                }
            ]
        }
    ],
    "accessors" : [
        {
            "bufferView" : 0,
            "componentType" : 5126,
            "count" : 98,
            "max" : [
                7.0974531173706055,
                4.9840850830078125,
                2.0916974544525146
            ],
            "min" : [
                -1.9048161506652832,
                -1,
                -6.102854251861572
            ],
            "type" : "VEC3"
        },
        {
            "bufferView" : 1,
            "componentType" : 5126,
            "count" : 98,
            "type" : "VEC3"
        },
        {
            "bufferView" : 2,
            "componentType" : 5126,
            "count" : 98,
            "type" : "VEC2"
        },
        {
            "bufferView" : 3,
            "componentType" : 5123,
            "count" : 174,
            "type" : "SCALAR"
        }
    ],
    "bufferViews" : [
        {
            "buffer" : 0,
            "byteLength" : 1176,
            "byteOffset" : 0
        },
        {
            "buffer" : 0,
            "byteLength" : 1176,
            "byteOffset" : 1176
        },
        {
            "buffer" : 0,
            "byteLength" : 784,
            "byteOffset" : 2352
        },
        {
            "buffer" : 0,
            "byteLength" : 348,
            "byteOffset" : 3136
        }
    ],
    "buffers" : [
        {
            "byteLength" : 3484,
            "uri" : "data:application/octet-stream;base64,"
        }
    ]
}
