{
    "asset" : {
        "generator" : "Khronos glTF Blender I/O v1.6.16",
        "version" : "2.0"
    },
    "scene" : 0,
    "scenes" : [
        {
            "name" : "Scene",
            "nodes" : [
                0
            ]
        }
    ],
    "nodes" : [
        {
            "mesh" : 0,
            "name" : "Body",
            "rotation" : [
                0.7071068286895752,
                0,
                0,
                0.7071067094802856
            ],
            "translation" : [
                0,
                4.465173244476318,
                0
            ]
        }
    ],
    "materials" : [
        {
            "doubleSided" : true,
            "name" : "Carbon.003",
            "pbrMetallicRoughness" : {
                "baseColorFactor" : [
                    0.010022825561463833,
                    0.010022825561463833,
                    0.010022825561463833,
                    1
                ],
                "metallicFactor" : 0,
                "roughnessFactor" : 0.5
            }
        },
        {
            "doubleSided" : true,
            "name" : "Window Glass",
            "pbrMetallicRoughness" : {}
        },
        {
            "doubleSided" : true,
            "name" : "Carbon",
            "pbrMetallicRoughness" : {
                "baseColorFactor" : [
                    0.010022825561463833,
                    0.010022825561463833,
                    0.010022825561463833,
                    1
                ],
                "metallicFactor" : 0,
                "roughnessFactor" : 0.5
            }
        },
        {
            "doubleSided" : true,
            "name" : "Carbon.002",
            "pbrMetallicRoughness" : {
                "baseColorFactor" : [
                    0.03310476616024971,
                    0.03310476616024971,
                    0.03310476616024971,
                    1
                ],
                "metallicFactor" : 0,
                "roughnessFactor" : 0.5
            }
        },
        {
            "doubleSided" : true,
            "name" : "Car Texture",
            "pbrMetallicRoughness" : {
                "baseColorFactor" : [
                    0.01786760799586773,
                    0.01786760799586773,
                    0.01786760799586773,
                    1
                ],
                "metallicFactor" : 0.30927833914756775,
                "roughnessFactor" : 0
            }
        },
        {
            "doubleSided" : true,
            "name" : "Carbon.001",
            "pbrMetallicRoughness" : {
                "baseColorFactor" : [
                    0,
                    0,
                    0,
                    1
                ],
                "metallicFactor" : 0,
                "roughnessFactor" : 0.5
            }
        },
        {
            "doubleSided" : true,
            "name" : "Rear Lights",
            "pbrMetallicRoughness" : {}
        }
    ],
    "meshes" : [
        {
            "name" : "Koenisegg one.341",
            "primitives" : [
                {
                    "attributes" : {
                        "POSITION" : 0,
                        "NORMAL" : 1,
                        "TEXCOORD_0" : 2
                    },
                    "indices" : 3,
                    "material" : 0
                },
                {
                    "attributes" : {
                        "POSITION" : 4,
                        "NORMAL" : 5,
                        "TEXCOORD_0" : 6
                    },
                    "indices" : 7,
                    "material" : 1
                },
                {
                    "attributes" : {
                        "POSITION" : 8,
                        "NORMAL" : 9,
                        "TEXCOORD_0" : 10
                    },
                    "indices" : 11,
                    "material" : 2
                },
                {
                    "attributes" : {
                        "POSITION" : 12,
                        "NORMAL" : 13,
                        "TEXCOORD_0" : 14
                    },
                    "indices" : 15,
                    "material" : 3
                },
                {
                    "attributes" : {
                        "POSITION" : 16,
                        "NORMAL" : 17,
                        "TEXCOORD_0" : 18
                    },
                    "indices" : 19,
                    "material" : 4
                },
                {
                    "attributes" : {
                        "POSITION" : 20,
                        "NORMAL" : 21,
                        "TEXCOORD_0" : 22
                    },
                    "indices" : 23,
                    "material" : 5
                },
                {
                    "attributes" : {
                        "POSITION" : 24,
                        "NORMAL" : 25,
                        "TEXCOORD_0" : 26
                    },
                    "indices" : 27,
                    "material" : 6
                }
            ]
        }
    ],
    "accessors" : [
        {
            "bufferView" : 0,
            "componentType" : 5126,
            "count" : 7845,
            "max" : [
                9.271573066711426,
                19.490196228027344,
                3.5441935062408447
            ],
            "min" : [
                -9.431955337524414,
                -18.699337005615234,
                -4.690749645233154
            ],
            "type" : "VEC3"
        },
        {
            "bufferView" : 1,
            "componentType" : 5126,
            "count" : 7845,
            "type" : "VEC3"
        },
        {
            "bufferView" : 2,
            "componentType" : 5126,
            "count" : 7845,
            "type" : "VEC2"
        },
        {
            "bufferView" : 3,
            "componentType" : 5123,
            "count" : 29472,
            "type" : "SCALAR"
        },
        {
            "bufferView" : 4,
            "componentType" : 5126,
            "count" : 391,
            "max" : [
                7.324506759643555,
                17.966371536254883,
                0.4046812057495117
            ],
            "min" : [
                -7.484889984130859,
                -16.225187301635742,
                -4.2961039543151855
            ],
            "type" : "VEC3"
        },
        {
            "bufferView" : 5,
            "componentType" : 5126,
            "count" : 391,
            "type" : "VEC3"
        },
        {
            "bufferView" : 6,
            "componentType" : 5126,
            "count" : 391,
            "type" : "VEC2"
        },
        {
            "bufferView" : 7,
            "componentType" : 5123,
            "count" : 1482,
            "type" : "SCALAR"
        },
        {
            "bufferView" : 8,
            "componentType" : 5126,
            "count" : 226,
            "max" : [
                8.341429710388184,
                18.282703399658203,
                3.329857349395752
            ],
            "min" : [
                -8.501809120178223,
                -16.942148208618164,
                -1.3078927993774414
            ],
            "type" : "VEC3"
        },
        {
            "bufferView" : 9,
            "componentType" : 5126,
            "count" : 226,
            "type" : "VEC3"
        },
        {
            "bufferView" : 10,
            "componentType" : 5126,
            "count" : 226,
            "type" : "VEC2"
        },
        {
            "bufferView" : 11,
            "componentType" : 5123,
            "count" : 546,
            "type" : "SCALAR"
        },
        {
            "bufferView" : 12,
            "componentType" : 5126,
            "count" : 6453,
            "max" : [
                25.99228858947754,
                12.52627182006836,
                3.123823404312134
            ],
            "min" : [
                -7.6422810554504395,
                -3.4911036491394043,
                -5.045899868011475
            ],
            "type" : "VEC3"
        },
        {
            "bufferView" : 13,
            "componentType" : 5126,
            "count" : 6453,
            "type" : "VEC3"
        },
        {
            "bufferView" : 14,
            "componentType" : 5126,
            "count" : 6453,
            "type" : "VEC2"
        },
        {
            "bufferView" : 15,
            "componentType" : 5123,
            "count" : 23184,
            "type" : "SCALAR"
        },
        {
            "bufferView" : 16,
            "componentType" : 5126,
            "count" : 7193,
            "max" : [
                8.448814392089844,
                18.979480743408203,
                3.541602373123169
            ],
            "min" : [
                -8.609195709228516,
                -17.488969802856445,
                -5.538262844085693
            ],
            "type" : "VEC3"
        },
        {
            "bufferView" : 17,
            "componentType" : 5126,
            "count" : 7193,
            "type" : "VEC3"
        },
        {
            "bufferView" : 18,
            "componentType" : 5126,
            "count" : 7193,
            "type" : "VEC2"
        },
        {
            "bufferView" : 19,
            "componentType" : 5123,
            "count" : 24207,
            "type" : "SCALAR"
        },
        {
            "bufferView" : 20,
            "componentType" : 5126,
            "count" : 296,
            "max" : [
                3.3616690635681152,
                18.320268630981445,
                0.2819032669067383
            ],
            "min" : [
                -3.295867919921875,
                -11.677349090576172,
                -3.8198723793029785
            ],
            "type" : "VEC3"
        },
        {
            "bufferView" : 21,
            "componentType" : 5126,
            "count" : 296,
            "type" : "VEC3"
        },
        {
            "bufferView" : 22,
            "componentType" : 5126,
            "count" : 296,
            "type" : "VEC2"
        },
        {
            "bufferView" : 23,
            "componentType" : 5123,
            "count" : 1344,
            "type" : "SCALAR"
        },
        {
            "bufferView" : 24,
            "componentType" : 5126,
            "count" : 163,
            "max" : [
                7.132745742797852,
                -14.662364959716797,
                -1.2763514518737793
            ],
            "min" : [
                -7.27186918258667,
                -16.225187301635742,
                -2.1737194061279297
            ],
            "type" : "VEC3"
        },
        {
            "bufferView" : 25,
            "componentType" : 5126,
            "count" : 163,
            "type" : "VEC3"
        },
        {
            "bufferView" : 26,
            "componentType" : 5126,
            "count" : 163,
            "type" : "VEC2"
        },
        {
            "bufferView" : 27,
            "componentType" : 5123,
            "count" : 726,
            "type" : "SCALAR"
        }
    ],
    "bufferViews" : [
        {
            "buffer" : 0,
            "byteLength" : 94140,
            "byteOffset" : 0
        },
        {
            "buffer" : 0,
            "byteLength" : 94140,
            "byteOffset" : 94140
        },
        {
            "buffer" : 0,
            "byteLength" : 62760,
            "byteOffset" : 188280
        },
        {
            "buffer" : 0,
            "byteLength" : 58944,
            "byteOffset" : 251040
        },
        {
            "buffer" : 0,
            "byteLength" : 4692,
            "byteOffset" : 309984
        },
        {
            "buffer" : 0,
            "byteLength" : 4692,
            "byteOffset" : 314676
        },
        {
            "buffer" : 0,
            "byteLength" : 3128,
            "byteOffset" : 319368
        },
        {
            "buffer" : 0,
            "byteLength" : 2964,
            "byteOffset" : 322496
        },
        {
            "buffer" : 0,
            "byteLength" : 2712,
            "byteOffset" : 325460
        },
        {
            "buffer" : 0,
            "byteLength" : 2712,
            "byteOffset" : 328172
        },
        {
            "buffer" : 0,
            "byteLength" : 1808,
            "byteOffset" : 330884
        },
        {
            "buffer" : 0,
            "byteLength" : 1092,
            "byteOffset" : 332692
        },
        {
            "buffer" : 0,
            "byteLength" : 77436,
            "byteOffset" : 333784
        },
        {
            "buffer" : 0,
            "byteLength" : 77436,
            "byteOffset" : 411220
        },
        {
            "buffer" : 0,
            "byteLength" : 51624,
            "byteOffset" : 488656
        },
        {
            "buffer" : 0,
            "byteLength" : 46368,
            "byteOffset" : 540280
        },
        {
            "buffer" : 0,
            "byteLength" : 86316,
            "byteOffset" : 586648
        },
        {
            "buffer" : 0,
            "byteLength" : 86316,
            "byteOffset" : 672964
        },
        {
            "buffer" : 0,
            "byteLength" : 57544,
            "byteOffset" : 759280
        },
        {
            "buffer" : 0,
            "byteLength" : 48414,
            "byteOffset" : 816824
        },
        {
            "buffer" : 0,
            "byteLength" : 3552,
            "byteOffset" : 865240
        },
        {
            "buffer" : 0,
            "byteLength" : 3552,
            "byteOffset" : 868792
        },
        {
            "buffer" : 0,
            "byteLength" : 2368,
            "byteOffset" : 872344
        },
        {
            "buffer" : 0,
            "byteLength" : 2688,
            "byteOffset" : 874712
        },
        {
            "buffer" : 0,
            "byteLength" : 1956,
            "byteOffset" : 877400
        },
        {
            "buffer" : 0,
            "byteLength" : 1956,
            "byteOffset" : 879356
        },
        {
            "buffer" : 0,
            "byteLength" : 1304,
            "byteOffset" : 881312
        },
        {
            "buffer" : 0,
            "byteLength" : 1452,
            "byteOffset" : 882616
        }
    ],
    "buffers" : [
        {
            "byteLength" : 884068,
            "uri" : "data:application/octet-stream;base64,"
        }
    ]
}
