{
    "asset" : {
        "generator" : "Khronos glTF Blender I/O v1.6.16",
        "version" : "2.0"
    },
    "scene" : 0,
    "scenes" : [
        {
            "name" : "Scene",
            "nodes" : [
                0
            ]
        }
    ],
    "nodes" : [
        {
            "mesh" : 0,
            "name" : "building_4",
            "rotation" : [
                0,
                0.7071068286895752,
                0,
                0.7071068286895752
            ],
            "scale" : [
                1,
                2.410520553588867,
                1
            ],
            "translation" : [
                1.5917118787765503,
                2.378709316253662,
                0.4995722770690918
            ]
        }
    ],
    "materials" : [
        {
            "doubleSided" : true,
            "name" : "uv_bangunan_ats",
            "pbrMetallicRoughness" : {
                "baseColorFactor" : [
                    0.800000011920929,
                    0.800000011920929,
                    0.800000011920929,
                    1
                ],
                "metallicFactor" : 0,
                "roughnessFactor" : 0.5
            }
        },
        {
            "doubleSided" : true,
            "name" : "uv_bangunan_2",
            "pbrMetallicRoughness" : {
                "baseColorFactor" : [
                    0.800000011920929,
                    0.800000011920929,
                    0.800000011920929,
                    1
                ],
                "metallicFactor" : 0,
                "roughnessFactor" : 0.5
            }
        },
        {
            "doubleSided" : true,
            "name" : "col_jendela_building_2_2.001",
            "pbrMetallicRoughness" : {
                "baseColorFactor" : [
                    0,
                    0.1730983853340149,
                    0.8000000715255737,
                    1
                ],
                "metallicFactor" : 0,
                "roughnessFactor" : 0.5
            }
        },
        {
            "doubleSided" : true,
            "name" : "col_jendela_building_4",
            "pbrMetallicRoughness" : {
                "baseColorFactor" : [
                    0,
                    0.0045082541182637215,
                    0.22657659649848938,
                    1
                ],
                "metallicFactor" : 0,
                "roughnessFactor" : 0.5
            }
        },
        {
            "doubleSided" : true,
            "name" : "col_jendela_building_1_2",
            "pbrMetallicRoughness" : {
                "baseColorFactor" : [
                    0.800000011920929,
                    0.800000011920929,
                    0.800000011920929,
                    1
                ],
                "metallicFactor" : 0,
                "roughnessFactor" : 0.5
            }
        },
        {
            "doubleSided" : true,
            "name" : "col_besi_peggangan",
            "pbrMetallicRoughness" : {
                "baseColorFactor" : [
                    0.14239834249019623,
                    0.14239834249019623,
                    0.14239834249019623,
                    1
                ],
                "metallicFactor" : 0,
                "roughnessFactor" : 0.5
            }
        },
        {
            "doubleSided" : true,
            "name" : "col_jendela_building_4_2",
            "pbrMetallicRoughness" : {
                "baseColorFactor" : [
                    0.03521490469574928,
                    0.03521490469574928,
                    0.03521490469574928,
                    1
                ],
                "metallicFactor" : 0,
                "roughnessFactor" : 0.5
            }
        }
    ],
    "meshes" : [
        {
            "name" : "Cube.009",
            "primitives" : [
                {
                    "attributes" : {
                        "POSITION" : 0,
                        "NORMAL" : 1,
                        "TEXCOORD_0" : 2
                    },
                    "indices" : 3,
                    "material" : 0
                },
                {
                    "attributes" : {
                        "POSITION" : 4,
                        "NORMAL" : 5,
                        "TEXCOORD_0" : 6
                    },
                    "indices" : 7,
                    "material" : 1
                },
                {
                    "attributes" : {
                        "POSITION" : 8,
                        "NORMAL" : 9,
                        "TEXCOORD_0" : 10
                    },
                    "indices" : 11,
                    "material" : 2
                },
                {
                    "attributes" : {
                        "POSITION" : 12,
                        "NORMAL" : 13,
                        "TEXCOORD_0" : 14
                    },
                    "indices" : 15,
                    "material" : 3
                },
                {
                    "attributes" : {
                        "POSITION" : 16,
                        "NORMAL" : 17,
                        "TEXCOORD_0" : 18
                    },
                    "indices" : 19,
                    "material" : 4
                },
                {
                    "attributes" : {
                        "POSITION" : 20,
                        "NORMAL" : 21,
                        "TEXCOORD_0" : 22
                    },
                    "indices" : 23,
                    "material" : 5
                },
                {
                    "attributes" : {
                        "POSITION" : 24,
                        "NORMAL" : 25,
                        "TEXCOORD_0" : 26
                    },
                    "indices" : 27,
                    "material" : 6
                }
            ]
        }
    ],
    "accessors" : [
        {
            "bufferView" : 0,
            "componentType" : 5126,
            "count" : 52,
            "max" : [
                1.0000004768371582,
                1.0676112174987793,
                1.0000005960464478
            ],
            "min" : [
                -1.0000003576278687,
                1,
                -1
            ],
            "type" : "VEC3"
        },
        {
            "bufferView" : 1,
            "componentType" : 5126,
            "count" : 52,
            "type" : "VEC3"
        },
        {
            "bufferView" : 2,
            "componentType" : 5126,
            "count" : 52,
            "type" : "VEC2"
        },
        {
            "bufferView" : 3,
            "componentType" : 5123,
            "count" : 78,
            "type" : "SCALAR"
        },
        {
            "bufferView" : 4,
            "componentType" : 5126,
            "count" : 1346,
            "max" : [
                1.0000004768371582,
                1,
                1.0000005960464478
            ],
            "min" : [
                -1.0000003576278687,
                -1,
                -1.0000003576278687
            ],
            "type" : "VEC3"
        },
        {
            "bufferView" : 5,
            "componentType" : 5126,
            "count" : 1346,
            "type" : "VEC3"
        },
        {
            "bufferView" : 6,
            "componentType" : 5126,
            "count" : 1346,
            "type" : "VEC2"
        },
        {
            "bufferView" : 7,
            "componentType" : 5123,
            "count" : 2436,
            "type" : "SCALAR"
        },
        {
            "bufferView" : 8,
            "componentType" : 5126,
            "count" : 996,
            "max" : [
                0.8341861963272095,
                1.4949816465377808,
                0.283160924911499
            ],
            "min" : [
                -0.8133716583251953,
                0.9971009492874146,
                -0.6857259273529053
            ],
            "type" : "VEC3"
        },
        {
            "bufferView" : 9,
            "componentType" : 5126,
            "count" : 996,
            "type" : "VEC3"
        },
        {
            "bufferView" : 10,
            "componentType" : 5126,
            "count" : 996,
            "type" : "VEC2"
        },
        {
            "bufferView" : 11,
            "componentType" : 5123,
            "count" : 2358,
            "type" : "SCALAR"
        },
        {
            "bufferView" : 12,
            "componentType" : 5126,
            "count" : 1176,
            "max" : [
                1.073787808418274,
                1.1792817115783691,
                1.0737876892089844
            ],
            "min" : [
                -1.0737879276275635,
                -0.46495121717453003,
                -1.0737879276275635
            ],
            "type" : "VEC3"
        },
        {
            "bufferView" : 13,
            "componentType" : 5126,
            "count" : 1176,
            "type" : "VEC3"
        },
        {
            "bufferView" : 14,
            "componentType" : 5126,
            "count" : 1176,
            "type" : "VEC2"
        },
        {
            "bufferView" : 15,
            "componentType" : 5123,
            "count" : 1782,
            "type" : "SCALAR"
        },
        {
            "bufferView" : 16,
            "componentType" : 5126,
            "count" : 8,
            "max" : [
                -0.446389377117157,
                1.169297218322754,
                -0.09961086511611938
            ],
            "min" : [
                -0.780924916267395,
                1.0305157899856567,
                -0.11872173845767975
            ],
            "type" : "VEC3"
        },
        {
            "bufferView" : 17,
            "componentType" : 5126,
            "count" : 8,
            "type" : "VEC3"
        },
        {
            "bufferView" : 18,
            "componentType" : 5126,
            "count" : 8,
            "type" : "VEC2"
        },
        {
            "bufferView" : 19,
            "componentType" : 5123,
            "count" : 12,
            "type" : "SCALAR"
        },
        {
            "bufferView" : 20,
            "componentType" : 5126,
            "count" : 9293,
            "max" : [
                1.5623669624328613,
                0.790351927280426,
                1.3924667835235596
            ],
            "min" : [
                -0.40101099014282227,
                -0.9990845322608948,
                -0.8326001167297363
            ],
            "type" : "VEC3"
        },
        {
            "bufferView" : 21,
            "componentType" : 5126,
            "count" : 9293,
            "type" : "VEC3"
        },
        {
            "bufferView" : 22,
            "componentType" : 5126,
            "count" : 9293,
            "type" : "VEC2"
        },
        {
            "bufferView" : 23,
            "componentType" : 5123,
            "count" : 17316,
            "type" : "SCALAR"
        },
        {
            "bufferView" : 24,
            "componentType" : 5126,
            "count" : 11407,
            "max" : [
                0.991115927696228,
                0.8449101448059082,
                0.9911158084869385
            ],
            "min" : [
                -0.9911161065101624,
                -0.471133291721344,
                -0.9911160469055176
            ],
            "type" : "VEC3"
        },
        {
            "bufferView" : 25,
            "componentType" : 5126,
            "count" : 11407,
            "type" : "VEC3"
        },
        {
            "bufferView" : 26,
            "componentType" : 5126,
            "count" : 11407,
            "type" : "VEC2"
        },
        {
            "bufferView" : 27,
            "componentType" : 5123,
            "count" : 20736,
            "type" : "SCALAR"
        }
    ],
    "bufferViews" : [
        {
            "buffer" : 0,
            "byteLength" : 624,
            "byteOffset" : 0
        },
        {
            "buffer" : 0,
            "byteLength" : 624,
            "byteOffset" : 624
        },
        {
            "buffer" : 0,
            "byteLength" : 416,
            "byteOffset" : 1248
        },
        {
            "buffer" : 0,
            "byteLength" : 156,
            "byteOffset" : 1664
        },
        {
            "buffer" : 0,
            "byteLength" : 16152,
            "byteOffset" : 1820
        },
        {
            "buffer" : 0,
            "byteLength" : 16152,
            "byteOffset" : 17972
        },
        {
            "buffer" : 0,
            "byteLength" : 10768,
            "byteOffset" : 34124
        },
        {
            "buffer" : 0,
            "byteLength" : 4872,
            "byteOffset" : 44892
        },
        {
            "buffer" : 0,
            "byteLength" : 11952,
            "byteOffset" : 49764
        },
        {
            "buffer" : 0,
            "byteLength" : 11952,
            "byteOffset" : 61716
        },
        {
            "buffer" : 0,
            "byteLength" : 7968,
            "byteOffset" : 73668
        },
        {
            "buffer" : 0,
            "byteLength" : 4716,
            "byteOffset" : 81636
        },
        {
            "buffer" : 0,
            "byteLength" : 14112,
            "byteOffset" : 86352
        },
        {
            "buffer" : 0,
            "byteLength" : 14112,
            "byteOffset" : 100464
        },
        {
            "buffer" : 0,
            "byteLength" : 9408,
            "byteOffset" : 114576
        },
        {
            "buffer" : 0,
            "byteLength" : 3564,
            "byteOffset" : 123984
        },
        {
            "buffer" : 0,
            "byteLength" : 96,
            "byteOffset" : 127548
        },
        {
            "buffer" : 0,
            "byteLength" : 96,
            "byteOffset" : 127644
        },
        {
            "buffer" : 0,
            "byteLength" : 64,
            "byteOffset" : 127740
        },
        {
            "buffer" : 0,
            "byteLength" : 24,
            "byteOffset" : 127804
        },
        {
            "buffer" : 0,
            "byteLength" : 111516,
            "byteOffset" : 127828
        },
        {
            "buffer" : 0,
            "byteLength" : 111516,
            "byteOffset" : 239344
        },
        {
            "buffer" : 0,
            "byteLength" : 74344,
            "byteOffset" : 350860
        },
        {
            "buffer" : 0,
            "byteLength" : 34632,
            "byteOffset" : 425204
        },
        {
            "buffer" : 0,
            "byteLength" : 136884,
            "byteOffset" : 459836
        },
        {
            "buffer" : 0,
            "byteLength" : 136884,
            "byteOffset" : 596720
        },
        {
            "buffer" : 0,
            "byteLength" : 91256,
            "byteOffset" : 733604
        },
        {
            "buffer" : 0,
            "byteLength" : 41472,
            "byteOffset" : 824860
        }
    ],
    "buffers" : [
        {
            "byteLength" : 866332,
            "uri" : "data:application/octet-stream;base64,"
        }
    ]
}
