{
    "asset" : {
        "generator" : "Khronos glTF Blender I/O v1.6.16",
        "version" : "2.0"
    },
    "scene" : 0,
    "scenes" : [
        {
            "name" : "Scene",
            "nodes" : [
                0
            ]
        }
    ],
    "nodes" : [
        {
            "mesh" : 0,
            "name" : "car9",
            "rotation" : [
                0.7071067690849304,
                0,
                0,
                0.7071068286895752
            ],
            "translation" : [
                1.2034289836883545,
                -0.8983862996101379,
                -3.2478413581848145
            ]
        }
    ],
    "materials" : [
        {
            "doubleSided" : true,
            "name" : "Material.car9",
            "pbrMetallicRoughness" : {
                "baseColorTexture" : {
                    "index" : 0
                },
                "roughnessFactor" : 0.5527864098548889
            }
        }
    ],
    "meshes" : [
        {
            "name" : "car9.008",
            "primitives" : [
                {
                    "attributes" : {
                        "POSITION" : 0,
                        "NORMAL" : 1,
                        "TEXCOORD_0" : 2
                    },
                    "indices" : 3,
                    "material" : 0
                }
            ]
        }
    ],
    "textures" : [
        {
            "sampler" : 0,
            "source" : 0
        }
    ],
    "images" : [
        {
            "bufferView" : 4,
            "mimeType" : "image/png",
            "name" : "Car Texture 2"
        }
    ],
    "accessors" : [
        {
            "bufferView" : 0,
            "componentType" : 5126,
            "count" : 4715,
            "max" : [
                2.1402196884155273,
                1.0531977415084839,
                -0.15677833557128906
            ],
            "min" : [
                -1.9905272722244263,
                -1.0531970262527466,
                -1.5686804056167603
            ],
            "type" : "VEC3"
        },
        {
            "bufferView" : 1,
            "componentType" : 5126,
            "count" : 4715,
            "type" : "VEC3"
        },
        {
            "bufferView" : 2,
            "componentType" : 5126,
            "count" : 4715,
            "type" : "VEC2"
        },
        {
            "bufferView" : 3,
            "componentType" : 5123,
            "count" : 11532,
            "type" : "SCALAR"
        }
    ],
    "bufferViews" : [
        {
            "buffer" : 0,
            "byteLength" : 56580,
            "byteOffset" : 0
        },
        {
            "buffer" : 0,
            "byteLength" : 56580,
            "byteOffset" : 56580
        },
        {
            "buffer" : 0,
            "byteLength" : 37720,
            "byteOffset" : 113160
        },
        {
            "buffer" : 0,
            "byteLength" : 23064,
            "byteOffset" : 150880
        },
        {
            "buffer" : 0,
            "byteLength" : 9772,
            "byteOffset" : 173944
        }
    ],
    "samplers" : [
        {
            "magFilter" : 9729,
            "minFilter" : 9987
        }
    ],
    "buffers" : [
        {
            "byteLength" : 183716,
            "uri" : "data:application/octet-stream;base64,"
        }
    ]
}
