{
    "asset" : {
        "generator" : "Khronos glTF Blender I/O v1.6.16",
        "version" : "2.0"
    },
    "scene" : 0,
    "scenes" : [
        {
            "name" : "Scene",
            "nodes" : [
                0
            ]
        }
    ],
    "nodes" : [
        {
            "mesh" : 0,
            "name" : "metlife",
            "scale" : [
                0.27465176582336426,
                1,
                1
            ],
            "translation" : [
                -0.04795241355895996,
                0.9920507669448853,
                5.191998481750488
            ]
        }
    ],
    "materials" : [
        {
            "doubleSided" : true,
            "name" : "metlife",
            "pbrMetallicRoughness" : {
                "baseColorTexture" : {
                    "index" : 0
                },
                "metallicFactor" : 0.19999998807907104,
                "roughnessFactor" : 0
            }
        }
    ],
    "meshes" : [
        {
            "name" : "Cube",
            "primitives" : [
                {
                    "attributes" : {
                        "POSITION" : 0,
                        "NORMAL" : 1,
                        "TEXCOORD_0" : 2
                    },
                    "indices" : 3,
                    "material" : 0
                }
            ]
        }
    ],
    "textures" : [
        {
            "sampler" : 0,
            "source" : 0
        }
    ],
    "images" : [
        {
            "bufferView" : 4,
            "mimeType" : "image/png",
            "name" : "metlife"
        }
    ],
    "accessors" : [
        {
            "bufferView" : 0,
            "componentType" : 5126,
            "count" : 54,
            "max" : [
                1.5171054601669312,
                1.990781545639038,
                1
            ],
            "min" : [
                -1.5171054601669312,
                -0.9999999403953552,
                -1
            ],
            "type" : "VEC3"
        },
        {
            "bufferView" : 1,
            "componentType" : 5126,
            "count" : 54,
            "type" : "VEC3"
        },
        {
            "bufferView" : 2,
            "componentType" : 5126,
            "count" : 54,
            "type" : "VEC2"
        },
        {
            "bufferView" : 3,
            "componentType" : 5123,
            "count" : 84,
            "type" : "SCALAR"
        }
    ],
    "bufferViews" : [
        {
            "buffer" : 0,
            "byteLength" : 648,
            "byteOffset" : 0
        },
        {
            "buffer" : 0,
            "byteLength" : 648,
            "byteOffset" : 648
        },
        {
            "buffer" : 0,
            "byteLength" : 432,
            "byteOffset" : 1296
        },
        {
            "buffer" : 0,
            "byteLength" : 168,
            "byteOffset" : 1728
        },
        {
            "buffer" : 0,
            "byteLength" : 2366849,
            "byteOffset" : 1896
        }
    ],
    "samplers" : [
        {
            "magFilter" : 9729,
            "minFilter" : 9987
        }
    ],
    "buffers" : [
        {
            "byteLength" : 2368748,
            "uri" : "data:application/octet-stream;base64,"
        }
    ]
}
